<?xml version="1.0" encoding="UTF-8"?>
<svg width="600" height="260" viewBox="0 0 600 260" xmlns="http://www.w3.org/2000/svg" role="img" aria-labelledby="title">
  <title>RoadRescue AI logo</title>
  <defs>
    <linearGradient id="shieldGradient" x1="0" y1="0" x2="0" y2="1">
      <stop offset="0%" stop-color="#0b234d" />
      <stop offset="100%" stop-color="#04192f" />
    </linearGradient>
    <linearGradient id="roadGradient" x1="0" y1="0" x2="1" y2="0">
      <stop offset="0%" stop-color="#0f3c7a" />
      <stop offset="100%" stop-color="#1a4f9f" />
    </linearGradient>
    <filter id="glow" x="-40%" y="-40%" width="180%" height="180%">
      <feGaussianBlur stdDeviation="10" result="coloredBlur" />
      <feMerge>
        <feMergeNode in="coloredBlur" />
        <feMergeNode in="SourceGraphic" />
      </feMerge>
    </filter>
  </defs>
  <g filter="url(#glow)">
    <path d="M166 20 C116 20 90 58 90 116 C90 190 150 244 166 248 C182 244 242 190 242 116 C242 58 216 20 166 20 Z" fill="url(#shieldGradient)" stroke="#ff8a2b" stroke-width="10" />
  </g>
  <path d="M122 136 C128 132 142 88 164 88 C186 88 200 132 206 136 L198 170 C198 170 162 176 142 176 C120 176 122 136 122 136 Z" fill="#ff8a2b" opacity="0.18" />
  <path d="M112 130 L116 154 C116 154 156 172 184 172 C212 172 252 154 252 154 L256 130 C256 130 216 150 184 150 C152 150 112 130 112 130 Z" fill="#ffffff" opacity="0.08" />
  <path d="M145 110 C152 102 170 92 182 94 C194 96 204 108 207 118 C214 128 214 140 208 148 C204 156 191 154 180 154 C168 154 154 160 144 156 C130 150 136 122 145 110 Z" fill="#ff8a2b" />
  <path d="M120 168 L132 168 C136 168 139 172 139 176 C139 180 136 184 132 184 L120 184 C116 184 113 180 113 176 C113 172 116 168 120 168 Z" fill="#fff" />
  <path d="M238 148 C238 148 204 198 166 198 C128 198 94 148 94 148 C94 148 101 162 116 170 C131 178 150 180 166 180 C182 180 201 178 216 170 C231 162 238 148 238 148 Z" fill="#0b234d" opacity="0.22" />
  <path d="M114 152 L166 60 L218 152 Z" fill="none" stroke="#ff8a2b" stroke-width="12" stroke-linecap="round" stroke-linejoin="round" opacity="0.95" />
  <path d="M166 62 L166 132" stroke="#fff" stroke-width="10" stroke-linecap="round" opacity="0.88" />
  <path d="M130 178 C138 186 150 190 166 190 C182 190 194 186 202 178" stroke="#ff8a2b" stroke-width="8" fill="none" stroke-linecap="round" />
  <g transform="translate(280 68)">
    <text x="0" y="36" font-family="Inter, Arial, Helvetica, sans-serif" font-size="60" font-weight="800" fill="#ffffff">RoadRescue</text>
    <text x="0" y="98" font-family="Inter, Arial, Helvetica, sans-serif" font-size="36" font-weight="700" fill="#ff8a2b">AI</text>
  </g>
</svg>
